<svg width="12" height="12" viewBox="0 0 12 12" fill="none" xmlns="http://www.w3.org/2000/svg">
<path fill-rule="evenodd" clip-rule="evenodd" d="M11.566 1.84773C11.9566 1.45721 11.9566 0.824043 11.566 0.433518C11.1755 0.0429939 10.5423 0.0429939 10.1518 0.433518L5.99929 4.58605L1.84676 0.433518C1.45623 0.0429939 0.823066 0.0429939 0.432542 0.433518C0.0420174 0.824043 0.0420174 1.45721 0.432542 1.84773L4.58508 6.00027L0.432542 10.1528C0.0420174 10.5433 0.0420174 11.1765 0.432542 11.567C0.823066 11.9575 1.45623 11.9575 1.84676 11.567L5.99929 7.41448L10.1518 11.567C10.5423 11.9575 11.1755 11.9575 11.566 11.567C11.9566 11.1765 11.9566 10.5433 11.566 10.1528L7.4135 6.00027L11.566 1.84773Z" fill="#A5A3B8"/>
</svg>
